<svg xmlns="http://www.w3.org/2000/svg" viewBox="0 0 320 235" font-family="sans-serif">
  <rect width="320" height="235" fill="#fafafa"/>
  <text x="160" y="16" text-anchor="middle" font-size="13" font-weight="bold" fill="#243447">G# Minor — G# A# B C# D# E F# G#</text>
  <g transform="translate(0,26)">
    <g stroke="#333" stroke-width="1.5">
<rect x="24" y="0" width="40" height="180" fill="#ffffff"/><rect x="64" y="0" width="40" height="180" fill="#ffffff"/><rect x="104" y="0" width="40" height="180" fill="#ffffff"/><rect x="144" y="0" width="40" height="180" fill="#ffffff"/><rect x="184" y="0" width="40" height="180" fill="#ffffff"/><rect x="224" y="0" width="40" height="180" fill="#ffffff"/><rect x="264" y="0" width="40" height="180" fill="#ffffff"/>
    </g>
    <g stroke="#000" stroke-width="1" fill="#222222">
<rect x="0" y="0" width="24" height="110"/><rect x="52" y="0" width="24" height="110"/><rect x="132" y="0" width="24" height="110"/><rect x="172" y="0" width="24" height="110"/><rect x="252" y="0" width="24" height="110"/><rect x="292" y="0" width="24" height="110"/>
    </g>
    <g fill="#888" font-size="12" text-anchor="middle">
<text x="44" y="132">A</text><text x="84" y="132">B</text><text x="124" y="132">C</text><text x="164" y="132">D</text><text x="204" y="132">E</text><text x="244" y="132">F</text><text x="284" y="132">G</text>
    </g>
    <g>
<circle cx="12" cy="90" r="12" fill="#3a8f5c" stroke="#fff" stroke-width="1.5"/><circle cx="64" cy="90" r="12" fill="#2c6fbb" stroke="#fff" stroke-width="1.5"/><circle cx="84" cy="162" r="14" fill="#2c6fbb"/><circle cx="144" cy="90" r="12" fill="#2c6fbb" stroke="#fff" stroke-width="1.5"/><circle cx="184" cy="90" r="12" fill="#2c6fbb" stroke="#fff" stroke-width="1.5"/><circle cx="204" cy="162" r="14" fill="#2c6fbb"/><circle cx="264" cy="90" r="12" fill="#2c6fbb" stroke="#fff" stroke-width="1.5"/><circle cx="304" cy="90" r="12" fill="#3a8f5c" stroke="#fff" stroke-width="1.5"/>
    </g>
    <g fill="#ffffff" font-size="13" font-weight="bold" text-anchor="middle">
<text x="12" y="94" font-size="10">1</text><text x="64" y="94" font-size="10">2</text><text x="84" y="167">3</text><text x="144" y="94" font-size="10">4</text><text x="184" y="94" font-size="10">5</text><text x="204" y="167">6</text><text x="264" y="94" font-size="10">7</text><text x="304" y="94" font-size="10">8</text>
    </g>
  </g>
  <text x="160" y="222" text-anchor="middle" font-size="10" fill="#52616b">Play the highlighted keys in numbered order. Green = root.</text>
</svg>